<svg xmlns="http://www.w3.org/2000/svg" width="200" height="198.528" viewBox="0 0 200 198.528">
  <g id="logo_bowl_white" transform="translate(-6.645 -5.965)">
    <rect id="Rectangle_28" data-name="Rectangle 28" width="42.115" height="55.405" transform="translate(106.13 101.731)" fill="none"/>
    <g id="Groupe_4" data-name="Groupe 4">
      <path id="Tracé_100" data-name="Tracé 100" d="M134.488,132.335c.374,0,.655.281.749.749s-.094.749-.655.936c-1.591.468-3.182,1.029-4.679,1.591s-2.995,1.217-4.492,1.872a23.857,23.857,0,0,1-1.685,4.96,18.873,18.873,0,0,1-2.62,4.212,13.9,13.9,0,0,1-3.369,2.9,7.934,7.934,0,0,1-4.024,1.123,2.7,2.7,0,0,1-2.527-1.029,3.931,3.931,0,0,1-.562-1.965,6.772,6.772,0,0,1,2.527-4.96,24.959,24.959,0,0,1,6.083-4.212,33.818,33.818,0,0,0,.842-7.394,17.521,17.521,0,0,0-.468-4.586c-.281-1.029-.562-1.5-.749-1.5a2.878,2.878,0,0,0-2.059,1.31,17.234,17.234,0,0,0-1.965,3.556q-.842,2.246-1.685,5.335a58.988,58.988,0,0,0-1.4,6.645,24.841,24.841,0,0,0-.187,2.62.513.513,0,0,1-.374.562,3.364,3.364,0,0,1-1.029.187,4.76,4.76,0,0,1-1.872-.374c-.655-.187-.936-.468-1.029-.749a79.916,79.916,0,0,1-.936-8.423c-.187-2.9-.281-5.8-.187-8.61,0-2.808.094-5.522.187-8.049s.281-4.867.468-6.832.374-3.556.562-4.679a6.619,6.619,0,0,1,.468-1.872,2.883,2.883,0,0,1,1.123-.468,4.944,4.944,0,0,1,1.217-.094,14.53,14.53,0,0,1,1.965.374c.655.187,1.029.468,1.123.936a21.768,21.768,0,0,1,0,2.714c-.094,1.685-.187,3.837-.281,6.364s-.187,5.335-.374,8.329-.281,5.9-.468,8.7a26.8,26.8,0,0,1,1.4-3.837,22.935,22.935,0,0,1,1.685-3.088,9.1,9.1,0,0,1,2.059-2.153,3.762,3.762,0,0,1,2.433-.749,5.63,5.63,0,0,1,4.773,2.527,10.556,10.556,0,0,1,1.872,6.645,11.932,11.932,0,0,1-.094,1.872c-.094.655-.187,1.217-.281,1.872a17.485,17.485,0,0,0,1.685-.655c.842-.281,1.685-.655,2.621-1.029s1.872-.655,2.714-.936A2.356,2.356,0,0,1,134.488,132.335ZM113.43,148.526c.936,0,1.778-.749,2.714-2.246a21.761,21.761,0,0,0,2.34-5.522,22.354,22.354,0,0,0-4.4,3.276,4.909,4.909,0,0,0-1.591,3.276c0,.468.094.842.281.936A1.244,1.244,0,0,0,113.43,148.526Z" fill="#fff"/>
    </g>
    <rect id="Rectangle_29" data-name="Rectangle 29" width="43.238" height="50.819" transform="translate(163.407 101.731)" fill="none"/>
    <g id="Groupe_5" data-name="Groupe 5">
      <path id="Tracé_101" data-name="Tracé 101" d="M191.109,127.562c.749,0,1.123.281,1.029.842a1.3,1.3,0,0,1-.936,1.123,5.822,5.822,0,0,1-1.5.374c-.655.094-1.31.281-1.965.374s-1.31.281-1.872.374-1.029.187-1.217.187c.094.468.094,1.123.187,1.965s.094,2.059.094,3.65a23.965,23.965,0,0,1-.749,6.27,19.331,19.331,0,0,1-1.965,4.4,8.116,8.116,0,0,1-2.527,2.527,4.746,4.746,0,0,1-2.433.842,3.085,3.085,0,0,1-2.995-1.685,11.83,11.83,0,0,1-1.31-3.744,27.2,27.2,0,0,1-.281-3.744c0-1.123,0-1.685-.094-1.685s-.374.374-.749,1.123a14.3,14.3,0,0,1-1.5,2.433,12.888,12.888,0,0,1-2.059,2.433,3.83,3.83,0,0,1-2.527,1.123,1.9,1.9,0,0,1-1.4-.562,4.919,4.919,0,0,1-1.029-1.31,12.5,12.5,0,0,1-.655-1.685,5.182,5.182,0,0,1-.187-1.685c0-1.5.094-3.276.281-5.241s.468-3.837.749-5.615a39.254,39.254,0,0,1,.936-4.586,6.235,6.235,0,0,1,.749-2.246c.187-.187.562-.187,1.123-.187a7.342,7.342,0,0,1,1.31.187c.468.094.936.281,1.4.374a3.236,3.236,0,0,1,1.123.655c.281.281.468.468.468.749s-.094.842-.187,1.778-.281,2.059-.468,3.276-.374,2.527-.562,3.931-.374,2.714-.468,3.837c-.187,1.217-.281,2.153-.374,2.9s-.094,1.123,0,1.123a6.394,6.394,0,0,0,.936-1.31,28.535,28.535,0,0,0,1.685-2.995c.655-1.123,1.217-2.153,1.778-3.088a11.94,11.94,0,0,1,1.123-1.685c.187-.281.562-.374,1.31-.374a7.343,7.343,0,0,1,1.31.187,2.135,2.135,0,0,1,1.123.562,5.925,5.925,0,0,1,.281,2.62c0,1.5-.094,3.182-.094,4.867-.094,1.778-.094,3.369-.094,4.773s.094,2.153.374,2.153a1.787,1.787,0,0,0,1.123-.655,7.8,7.8,0,0,0,1.4-2.059,17.3,17.3,0,0,0,1.217-3.556,20.877,20.877,0,0,0,.562-5.241,24.454,24.454,0,0,0-.281-4.305c-.187-1.029-.281-1.778-.374-2.34s.281-.842,1.217-.842c.374,0,.936-.094,1.685-.187a19.166,19.166,0,0,0,2.246-.468,19.173,19.173,0,0,1,2.246-.468A5.986,5.986,0,0,0,191.109,127.562Z" fill="#fff"/>
      <path id="Tracé_102" data-name="Tracé 102" d="M194.665,146.748a3.734,3.734,0,0,1-2.995-1.591,13.184,13.184,0,0,1-1.965-4.305,46.506,46.506,0,0,1-1.123-6.364c-.187-2.433-.374-5.054-.374-7.768,0-2.433.094-4.867.187-7.3.187-2.433.281-4.679.468-6.645s.374-3.65.562-4.96a8.089,8.089,0,0,1,.468-2.153,2.959,2.959,0,0,1,1.217-.655,10.422,10.422,0,0,1,1.591-.187,4.888,4.888,0,0,1,1.965.374,1.291,1.291,0,0,1,.936,1.31c0,.281-.094,1.123-.187,2.527-.187,1.4-.281,3.088-.468,5.147s-.281,4.305-.468,6.832c-.187,2.433-.187,4.867-.187,7.3v4.867c0,1.685.094,3.276.187,4.586a27.968,27.968,0,0,0,.374,3.463c.187.936.374,1.31.562,1.31.468,0,1.029-.562,1.591-1.685.655-1.123,1.217-2.34,1.872-3.65.655-1.5,1.31-3.276,2.059-5.335.187-.374.374-.562.749-.562a.85.85,0,0,1,.655.281.84.84,0,0,1,.187.842c-.936,2.621-1.872,4.96-2.808,7.113-.562,1.217-1.029,2.246-1.4,2.995a15.386,15.386,0,0,1-1.31,2.059,10.7,10.7,0,0,1-1.31,1.5A1.092,1.092,0,0,1,194.665,146.748Z" fill="#fff"/>
    </g>
    <circle id="Ellipse_9" data-name="Ellipse 9" cx="18.905" cy="18.905" r="18.905" transform="translate(126.533 114.085)" fill="#fff"/>
    <rect id="Rectangle_30" data-name="Rectangle 30" width="101.451" height="74.029" transform="translate(7.394 96.21)" fill="none"/>
    <g id="Groupe_6" data-name="Groupe 6">
      <path id="Tracé_103" data-name="Tracé 103" d="M16,146a13.09,13.09,0,0,1-3.182-.468,6.394,6.394,0,0,1-2.995-1.685,8.495,8.495,0,0,1-2.246-3.276,14.509,14.509,0,0,1-.936-5.428A15.059,15.059,0,0,1,7.861,128.5a14.009,14.009,0,0,1,2.9-4.118,8.951,8.951,0,0,1,3.463-2.059,10.313,10.313,0,0,1,2.9-.562,4.055,4.055,0,0,1,3.369,1.4,4.971,4.971,0,0,1,1.123,3.276c0,1.029-.374,1.5-1.123,1.5a.851.851,0,0,1-.749-.374,1.43,1.43,0,0,1-.374-.936,4.7,4.7,0,0,0-.187-1.123.684.684,0,0,0-.655-.562c-.281,0-.655.281-1.123.749a7.805,7.805,0,0,0-1.5,2.059,19.5,19.5,0,0,0-1.31,3.369,16.38,16.38,0,0,0-.562,4.492c0,.842,0,1.778.094,2.808a19.584,19.584,0,0,0,.374,2.62A6.637,6.637,0,0,0,15.255,143a1.283,1.283,0,0,0,1.217.749,6.339,6.339,0,0,0,3.837-1.965,27.215,27.215,0,0,0,3.556-4.305,31.718,31.718,0,0,0,2.808-4.773c.749-1.591,1.31-2.62,1.591-3.276a.94.94,0,0,1,.936-.562.967.967,0,0,1,.749.374.819.819,0,0,1,.094.936,26.483,26.483,0,0,1-1.4,2.995,34.292,34.292,0,0,1-3.276,5.335,34.076,34.076,0,0,1-4.492,5.147A6.669,6.669,0,0,1,16,146Z" fill="#fff"/>
      <path id="Tracé_104" data-name="Tracé 104" d="M57.089,129.621a.9.9,0,0,1,.842-.562.851.851,0,0,1,.749.374,1.023,1.023,0,0,1,.187.936c-1.591,4.118-3.088,7.768-4.679,11.044-.842,1.965-1.685,3.463-2.246,4.586-.655,1.123-1.31,2.153-1.965,3.182a12.908,12.908,0,0,1-1.965,2.34,3.214,3.214,0,0,1-1.872.936c-1.965,0-3.463-1.217-4.679-3.744s-1.591-6.458-1.123-11.886c.187-1.591.468-3.369.749-5.147.374-1.872.749-3.556,1.029-5.147.374-1.591.562-2.9.749-4.024s.187-1.591,0-1.591c-.468-.094-1.217.562-2.059,1.778a26.473,26.473,0,0,0-2.62,4.96,50.6,50.6,0,0,0-2.527,7.019,59.066,59.066,0,0,0-1.872,8.049v1.4c0,.374.094.655.094.936a.941.941,0,0,1-.468,1.029,2.705,2.705,0,0,1-1.31.374,2.641,2.641,0,0,1-1.4-.374,2.013,2.013,0,0,1-.936-1.31,35.688,35.688,0,0,1-1.123-6.083c-.281-2.527-.468-5.147-.562-8.142q-.14-4.352,0-8.985c.094-3.088.187-5.99.374-8.7s.374-5.147.655-7.3a40.926,40.926,0,0,1,.749-4.679,2.115,2.115,0,0,1,1.5-1.123,16.808,16.808,0,0,1,2.059-.187,4.556,4.556,0,0,1,2.62.842,1.811,1.811,0,0,1,.749,1.5,10.716,10.716,0,0,1-.094,1.4c-.094.842-.187,1.778-.374,2.9-.094,1.123-.281,2.433-.468,3.931-.187,1.4-.281,2.9-.374,4.492-.374,3.837-.562,7.113-.842,9.92-.187,2.808-.374,5.241-.468,7.3.655-1.965,1.4-3.837,2.153-5.615q1.263-2.667,2.527-4.773a11.386,11.386,0,0,1,2.995-3.276,5.943,5.943,0,0,1,3.369-1.217,4.042,4.042,0,0,1,3.276,1.872,6.716,6.716,0,0,1,1.4,4.212,15.883,15.883,0,0,1-.374,3.276c-.281,1.31-.562,2.9-.936,4.586-.374,1.778-.749,3.65-1.123,5.8a68.151,68.151,0,0,0-.842,6.832,8.584,8.584,0,0,0,.187,3.088.974.974,0,0,0,.936.655,1.6,1.6,0,0,0,1.123-.749,8.9,8.9,0,0,0,1.4-1.965c.468-.842,1.029-1.778,1.5-2.808a34.884,34.884,0,0,0,1.5-3.276A79.236,79.236,0,0,0,57.089,129.621Z" fill="#fff"/>
      <path id="Tracé_105" data-name="Tracé 105" d="M76.556,129.621a.9.9,0,0,1,.842-.562.851.851,0,0,1,.749.374,1.023,1.023,0,0,1,.187.936,77.48,77.48,0,0,1-3.744,7.861,18.319,18.319,0,0,1-2.059,3.276c-.655.749-1.217,1.591-1.872,2.246a12.181,12.181,0,0,1-2.153,1.685,4.139,4.139,0,0,1-2.246.655,10.27,10.27,0,0,1-3.744-.749,11.85,11.85,0,0,1-3.088-2.246,10.331,10.331,0,0,1-2.153-3.556,12.789,12.789,0,0,1-.749-4.773,19.015,19.015,0,0,1,.749-5.147,19.632,19.632,0,0,1,1.872-4.492,11.913,11.913,0,0,1,2.9-3.182,5.908,5.908,0,0,1,3.65-1.217,9.734,9.734,0,0,1,1.4.187,4.486,4.486,0,0,1,1.872.655,4.574,4.574,0,0,1,1.685,1.31,3.415,3.415,0,0,1,.749,2.246,6.517,6.517,0,0,1-2.246,4.679,11.32,11.32,0,0,1-5.335,2.808,4.973,4.973,0,0,0-.094,1.31c0,2.9.468,4.96,1.31,6.177s1.685,1.872,2.34,1.872c1.123,0,2.153-.655,3.276-1.872a25.9,25.9,0,0,0,2.9-4.212C74.591,133.926,75.526,131.867,76.556,129.621Zm-9.827-6.832c-.281,0-.749.749-1.31,2.246a23.987,23.987,0,0,0-1.4,5.428,12.274,12.274,0,0,0,2.34-2.527,4.946,4.946,0,0,0,1.123-2.9,7.224,7.224,0,0,0-.187-1.4C67.2,122.976,67.01,122.789,66.729,122.789Z" fill="#fff"/>
      <path id="Tracé_106" data-name="Tracé 106" d="M98.643,129.621c.094-.374.374-.468.842-.468a1.063,1.063,0,0,1,.749.281.84.84,0,0,1,.187.842,48.619,48.619,0,0,1-3.556,7.674c-1.31,2.34-2.714,4.492-4.118,6.551a21.543,21.543,0,0,1-.281,6.832,32.75,32.75,0,0,1-2.153,7.3,19.146,19.146,0,0,1-3.65,5.8,6.792,6.792,0,0,1-5.147,2.34,5.137,5.137,0,0,1-3.463-1.123,4.018,4.018,0,0,1-1.31-3.182,6.26,6.26,0,0,1,.749-2.714,18.165,18.165,0,0,1,2.153-2.995c.842-1.029,1.872-2.153,3.088-3.463,1.217-1.217,2.433-2.62,3.744-4.212.094-.749.187-1.31.281-1.872a8.082,8.082,0,0,0,.094-1.4,2.726,2.726,0,0,0-.842-2.34,3.559,3.559,0,0,0-2.059-.562,7.3,7.3,0,0,0-2.059.281,5.741,5.741,0,0,1-1.5.281,1.492,1.492,0,0,1-1.123-.374c-.374-.281-.468-.655-.468-1.31a10.816,10.816,0,0,1,.936-3.369c.655-1.685,1.31-3.463,2.153-5.428.749-1.965,1.5-3.744,2.153-5.522a12.523,12.523,0,0,0,.936-3.931c0-.749-.094-1.123-.374-1.217a2.732,2.732,0,0,0-.842-.187,9.333,9.333,0,0,0-1.5.187,15.209,15.209,0,0,0-1.778.374,11.124,11.124,0,0,1-.281,1.872c-.187.936-.374,1.872-.655,2.9s-.562,1.872-.842,2.62c-.374.749-.655,1.123-1.123,1.123a.851.851,0,0,1-.749-.374,1.451,1.451,0,0,1-.187-1.123,27.383,27.383,0,0,0,1.591-6.738c-.562.094-1.029.187-1.5.281a7.083,7.083,0,0,1-1.4.094,2.957,2.957,0,0,1-2.527-1.123,4.184,4.184,0,0,1-.842-2.62,4.677,4.677,0,0,1,.936-2.9,3.446,3.446,0,0,1,2.995-1.4,3.726,3.726,0,0,1,3.276,1.685,8.306,8.306,0,0,1,1.31,4.212c.936-.187,1.872-.281,2.808-.468.936-.094,1.778-.187,2.621-.187,1.965,0,3.369.468,4.024,1.4a5.15,5.15,0,0,1,1.123,3.276,9.862,9.862,0,0,1-.936,3.837,47.863,47.863,0,0,1-2.059,4.492c-.749,1.5-1.4,2.808-2.059,4.024a8.571,8.571,0,0,0-.936,2.527,6.532,6.532,0,0,1,3.369-1.123c1.685,0,2.808.936,3.556,2.9q1.685-2.527,3.369-5.615A62.875,62.875,0,0,0,98.643,129.621ZM76.182,117.454a1.188,1.188,0,0,0-1.029.655,2.785,2.785,0,0,0-.468,1.4,2.25,2.25,0,0,0,.187,1.4,1.012,1.012,0,0,0,1.029.655h.936c.374,0,.749-.094,1.217-.094a12.537,12.537,0,0,0-.468-2.9A1.464,1.464,0,0,0,76.182,117.454Zm3.744,45.952a2.1,2.1,0,0,0,1.685-.936,11.19,11.19,0,0,0,1.5-2.34,21.688,21.688,0,0,0,1.31-3.276c.374-1.217.749-2.433,1.123-3.744-1.965,2.153-3.556,3.931-4.773,5.428-1.31,1.5-1.872,2.714-1.872,3.744a1.763,1.763,0,0,0,.187.749C79.176,163.313,79.457,163.407,79.925,163.407Z" fill="#fff"/>
    </g>
    <path id="Tracé_107" data-name="Tracé 107" d="M106.692,204.492A79.691,79.691,0,0,1,50.351,68.414h0a79.758,79.758,0,0,1,112.681,0,79.691,79.691,0,0,1-56.341,136.079Zm0-157.511a77.866,77.866,0,1,0,55.03,22.836A77.388,77.388,0,0,0,106.692,46.982Z" fill="#fff"/>
    <rect id="Rectangle_31" data-name="Rectangle 31" width="31.821" height="4.679" transform="matrix(0.677, -0.736, 0.736, 0.677, 158.918, 65.505)" fill="#fff"/>
    <rect id="Rectangle_32" data-name="Rectangle 32" width="56.808" height="4.679" transform="translate(141.811 53.661) rotate(-57.098)" fill="#fff"/>
  </g>
</svg>
